<?xml version="1.0" encoding="utf-8"?>
<!-- Generator: Adobe Illustrator 15.0.0, SVG Export Plug-In  -->
<!DOCTYPE svg PUBLIC "-//W3C//DTD SVG 1.1//EN" "http://www.w3.org/Graphics/SVG/1.1/DTD/svg11.dtd" [
	<!ENTITY ns_flows "http://ns.adobe.com/Flows/1.0/">
]>
<svg version="1.1"
	 xmlns="http://www.w3.org/2000/svg" xmlns:xlink="http://www.w3.org/1999/xlink" xmlns:a="http://ns.adobe.com/AdobeSVGViewerExtensions/3.0/"
	 x="0px" y="0px" width="327px" height="327px" viewBox="-1.681 -1.417 327 327"
	 overflow="visible" enable-background="new -1.681 -1.417 327 327" xml:space="preserve">
<defs>
</defs>
<path fill-rule="evenodd" clip-rule="evenodd" fill="#5A646B" d="M32.962,0C118.48,0,204,0,289.519,0
	c16.941,5.029,27.935,16.021,32.964,32.962c0,85.518,0,171.033,0,256.551c-5.197,16.776-16.005,27.948-32.964,32.962
	c-85.519,0-171.039,0-256.557,0C16.02,317.445,5.029,306.453,0,289.513c0-85.518,0-171.033,0-256.551
	C5.029,16.021,16.02,5.029,32.962,0z M108.931,182.016c-5.782,5.212-12.058,9.927-22.934,10.036
	c1.059,6.791-1.616,9.849-1.438,15.764c10.442-0.885,16.617,2.502,27.233,1.437c7.905,17.893,14.81,36.788,24.367,53.031
	c7.166-5.582,16.349-30.717,27.235-32.97c2.249-0.467,13.143-1.316,14.326,5.731c-1.986,3.269-9.978,0.54-14.326,1.433
	c-10.215,12.25-19.129,25.789-30.105,37.271c-8.306-19.881-17.623-38.752-25.796-58.767c-8.247,0.123-16.559,0.311-22.935-1.438
	c-2.644,28.895-6.053,57.014-7.166,87.425c61.154,0,122.304,0,183.458,0c-3.109-22.204-11.087-39.548-14.332-61.624
	c-10.442,4.855-19.511,12.305-28.671,18.631c-9.494,6.571-19.791,11.433-27.229,20.067c7.7-0.282,16.476,2.849,24.367,4.3
	c7.9,1.456,20.899-0.049,21.497,7.17c-19.817,1.178-44.422-5.254-63.062-10.032c24.272-16.028,49.834-30.47,70.232-48.735
	c-2.994-8.475-4.665-18.27-7.17-27.224c-6.819-2.259-15.097-3.059-18.635-8.608c1.446-5.609,15.01-13.168,10.037-15.76
	c-4.93,3.105-11.895,10.483-17.198,8.594c-10.79-28.293,10.297-50.392,35.833-44.425c28.133,6.581,28.946,56.53-4.304,58.761
	c8.608,32.962,17.435,65.695,25.801,98.886c19.84,0.848,30.874-7.915,32.958-22.926c4.627-33.171,0-72.993,0-116.085
	c0-20.549,0-39.906,0-58.764c0-40.027,7.801-78.904-27.221-81.693c-28.275-2.259-71.022,0-113.234,0
	c-41.722,0-81.64-3.391-113.223,0c-16.129,1.725-23.87,10.448-25.795,22.93c-4.815,31.146,0,65.724,0,98.892
	c0,32.586,0,65.498,0,98.89c11.158-2.926,21.729-32.256,34.395-35.83c6.737-1.897,13.157,1.831,22.93,1.434
	c-1.059-6.791,1.616-9.854,1.438-15.764c-13.947-4.897-23.719-13.441-24.367-28.66c-1.926-45.141,75.941-38.824,57.325,11.463
	c-5.459-2.223-14.807-8.073-18.627-7.166C99.15,172.687,106.933,174.453,108.931,182.016z M57.33,212.115
	c-2.729-0.128-1.707,2.788-2.866,4.3c-7.553,9.821-30.489,29.739-32.961,38.695c-4.131,14.928,0.602,35.183,10.027,41.564
	c9.233,6.243,22.993,3.467,38.698,4.294c2.67-28.854,5.942-57.114,7.166-87.425C69.479,214.298,63.888,212.727,57.33,212.115z"/>
<path fill-rule="evenodd" clip-rule="evenodd" fill="#5A646B" d="M108.931,126.124c0.602-11.816,7.229-17.607,8.595-28.663
	c-32.652-3.436-77.302,4.701-78.827-28.661c-0.169-3.662,0.657-11.84,4.295-17.203c13.139-19.32,115.07-21.022,120.401,11.465
	c2.656,16.221-8.367,32.401-27.235,32.962c-4.76,4.889-8.612,10.343-12.902,15.77C119.292,116.813,115.864,124.171,108.931,126.124z
	 M118.954,110.36c5.017-6.455,10.192-12.748,15.773-18.631c26.042-1.566,28.987-23.994,21.497-35.834
	c-4.771-7.539-26.129-11.848-43.002-12.902C77.558,40.784,37.7,41.291,42.994,71.66c4.907,28.134,49.333,15.445,77.402,22.935
	C123.482,100.3,117.375,107.312,118.954,110.36z"/>
<path fill-rule="evenodd" clip-rule="evenodd" fill="#5A646B" d="M213.55,128.994c-4.894,0.84-0.812,10.648-4.291,12.894
	c-6.502-1.619-6.965-9.277-11.469-12.894c-25.321,1.566-41.255-29.547-27.234-50.167c17.559-25.824,115.674-18.088,101.762,27.233
	C266.593,124.708,243.471,128.688,213.55,128.994z M213.55,124.69c37.48,5.582,71.208-19,50.168-42.993
	c-12.058-13.751-71.176-17.28-85.996-4.304c-10.312,9.037-9.512,29.479-1.434,38.699c8.713,9.945,26.642,5.623,30.1,17.197
	C208.365,130.022,207.958,124.353,213.55,124.69z"/>
</svg>
