<?xml version="1.0" encoding="utf-8"?>
<!-- Generator: Adobe Illustrator 15.0.0, SVG Export Plug-In  -->
<!DOCTYPE svg PUBLIC "-//W3C//DTD SVG 1.1//EN" "http://www.w3.org/Graphics/SVG/1.1/DTD/svg11.dtd" [
	<!ENTITY ns_flows "http://ns.adobe.com/Flows/1.0/">
]>
<svg version="1.1"
	 xmlns="http://www.w3.org/2000/svg" xmlns:xlink="http://www.w3.org/1999/xlink" xmlns:a="http://ns.adobe.com/AdobeSVGViewerExtensions/3.0/"
	 x="0px" y="0px" width="327px" height="327px" viewBox="-8.722 -2.333 327 327"
	 overflow="visible" enable-background="new -8.722 -2.333 327 327" xml:space="preserve">
<defs>
</defs>
<path fill-rule="evenodd" clip-rule="evenodd" fill="#5A646B" d="M40.838,0c10.116,3.811,21.815,11.386,34.918,12.697
	c8.739,0.872,17.012-0.511,24.597,0c21.591,1.444,40.857,11.309,53.957,22.218c8.327,6.926,16.297,14.489,22.222,26.184
	c13.367,26.395,11.108,64.354-7.146,86.491c16.117-0.774,25.294,5.393,34.122,11.898c-2.093,3.867-5,6.265-8.729,10.321
	c-1.887,2.057-7.393,10.107-8.722,10.312c-1.037,0.16-4.405-3.444-5.564-3.968c-11.505-5.235-24.944,4.039-22.216,17.46
	c1.287,6.293,5.644,8.65,11.109,13.489c11.345,10.044,26.252,25.258,38.092,34.117c-4.274,8.161-12.115,12.754-16.662,20.634
	c-11.512-9.234-26.055-21.603-38.09-32.534c-11.83-10.736-24.11-21.913-21.427-47.604c-6.265-0.174-11.913,2.449-17.459,3.961
	C56.196,201.454,5.066,166.004,0.371,114.268c-3.23-35.603,15.294-57.704,30.947-76.975C40.14,26.431,46.975,17.67,40.838,0z
	 M34.493,38.085c-8.27,10.662-17.071,18.849-23.014,30.947c-2.745,5.6-7.584,12.828-3.967,20.631
	c7.12-1.692,13.193-7.59,17.459-12.697c9.867-11.806,19.535-26.479,22.218-43.638c0.38-2.501-3.64-0.6-3.971-2.384
	c7.799-4.682,9.401-19.391,1.592-25.388C47.395,20.925,41.241,29.386,34.493,38.085z M146.376,94.425
	c-5.031,7.017-8.439,15.246-16.667,16.668c-5.993,1.032-13.488-1.409-20.625-2.384c-7.62-1.047-16.051-2.478-23.806-1.584
	c-12.561,1.445-23.858,12.562-27.775,22.218c-4.875,12.025-1.602,26.335,7.146,31.736c9.749,6.02,22.307,2.021,30.15-2.382
	c7.044-3.947,14.759-13.768,21.422-22.216c5.411-6.855,13.067-20.452,22.223-21.422c12.588-1.337,25.264,12.916,36.497,8.726
	c14.146-5.273,10.143-48.867-9.516-47.606c-0.805,0.049-1.297,0.733-1.592,0.787C156.309,78.445,151.076,87.882,146.376,94.425z
	 M143.205,127.751c-8.224-0.13-22.753,12.469-19.838,21.427c5.044,0.393,4.401-5.425,6.341-7.935
	c3.721-4.794,8.604-6.637,15.876-7.938c2.969,0.738,3.157,4.245,7.142,3.971C155.065,130.685,146.675,127.809,143.205,127.751z
	 M123.367,164.25c-4.67,0.493-11.069-2.648-13.493,2.38c1.597,5.178,9.9,4.328,13.493,3.971
	c15.527-1.548,35.523-15.025,39.677-26.978c-1.136-0.188-1.342-1.306-2.384-1.583C153.026,152.057,138.975,162.599,123.367,164.25z
	 M157.484,203.136c-3.51-3.365-3.474-10.276-4.757-15.873c-3.211,5.577-0.389,19.637,1.583,19.043
	c-0.39-2.835-1.534-4.352,0.799-5.549C155.109,202.083,159.431,204.803,157.484,203.136z"/>
<path fill-rule="evenodd" clip-rule="evenodd" fill="#5A646B" d="M282.065,174.566c3.609,17.737-2.093,31.905-10.313,42.055
	c-7.647-5.042-13.184-12.207-20.634-17.454c12.034-10.151,1.932-32.377-15.071-27.776c-3.961,1.073-9.579,6.801-13.492,11.109
	c-9.96,10.966-24.708,29.011-33.331,38.093c-7.209-5.488-14.365-11.028-19.838-18.254c9.561-10.653,22.047-23.872,32.538-35.709
	c10.751-12.122,22.621-26.277,48.397-21.42c2.796-4.754,2.787-8.412,5.563-11.905c11.639-14.637,40.52-10.822,45.228,9.526
	C304.308,156.623,297.414,170.283,282.065,174.566z M223.346,176.951c4.115-6.359,13.318-10.429,22.222-9.525
	c-11.758-7.221-26.797,3.335-27.777,7.141c1.557-0.666,3.968-3.94,4.764-0.79c-0.89,0.074-1.235-1.16-1.588,0
	C223.508,174.311,222.461,176.414,223.346,176.951z M291.59,163.458c8.42-6.544,6.095-28.31-3.174-29.356
	C292.252,140.837,289.57,157.451,291.59,163.458z M278.89,187.263c-0.34-2.593,0.804-10.808-0.787-9.521
	c0.483,2.96-0.751,11.453,0,9.521C278.362,187.263,278.631,187.263,278.89,187.263z"/>
<path fill-rule="evenodd" clip-rule="evenodd" fill="#5A646B" d="M285.24,263.44c23.21,1.571,31.857,33.36,13.491,46.816
	c-14.242,10.429-37.435,2.239-40.465-15.871c-17.389,4.909-34.491-1.232-43.645-9.523c5.559-7.129,10.89-14.504,18.25-19.839
	c12.47,10.851,29.999,0.73,26.977-15.074c-1.659-8.668-18.129-18.725-24.596-24.598c-10.026-9.1-18.103-17.016-24.601-23.804
	c5.397-6.506,11.856-11.955,16.667-19.047c7.647,4.71,16.171,14.257,26.185,23.015C269.471,219.489,291.877,233.568,285.24,263.44z
	 M263.819,225.352c-1.735-2.727-2.478,3.564-1.592,3.176c0.17-0.89,0.886-1.234,1.592-1.587c-0.013,1.574-2.164,1.006-1.592,3.175
	c10.294,7.164,18.609,16.31,19.839,32.529c6.922-22.395-10.613-37.23-22.218-43.643C263.22,220.844,260.707,223.773,263.819,225.352
	z M297.146,305.494c9.979-5.774,9.424-29.254-2.381-32.531C296.904,283.434,296.17,296.896,297.146,305.494z"/>
<path fill-rule="evenodd" clip-rule="evenodd" fill="#5A646B" d="M248.739,240.434c-7.651,9.318-17.397,21.139-27.772,32.529
	c-13.232,14.529-26.985,30.465-50.784,26.185c-3.015,3.766-2.469,8.239-4.759,11.898c-4.965,7.935-15.1,12.48-26.19,11.111
	c-26.537-3.273-28.156-44.919-2.378-49.986c-2.147-8.631-3.847-19.45,0-30.155c1.484-4.137,8.063-14.083,9.521-14.28
	c2.312-0.323,8.189,6.771,10.317,8.726c4.178,3.841,6.271,5.948,9.518,8.725c-10.645,12.738-1.414,30.469,14.283,27.777
	c8.642-1.484,16.655-14.933,23.81-23.013c9.707-10.962,17.696-18.439,23.802-26.186
	C236.575,227.736,240.976,235.764,248.739,240.434z M169.386,295.182c13.111,4.601,30.97-3.713,34.917-12.695
	c-4.121,4.584-4.104,0.433-8.729,3.167c1.467-2.658-0.206-0.692-1.583,0c-0.12-1.056,2.666-2.948,0.788-3.167
	C189.86,290.258,180.566,293.657,169.386,295.182z M159.072,309.46c4.504-3.828,2.336-18.438-2.379-17.459
	C160.66,295,158.634,306.07,159.072,309.46z"/>
</svg>
