<?xml version="1.0" encoding="utf-8"?>
<!-- Generator: Adobe Illustrator 15.0.0, SVG Export Plug-In  -->
<!DOCTYPE svg PUBLIC "-//W3C//DTD SVG 1.1//EN" "http://www.w3.org/Graphics/SVG/1.1/DTD/svg11.dtd" [
	<!ENTITY ns_flows "http://ns.adobe.com/Flows/1.0/">
]>
<svg version="1.1"
	 xmlns="http://www.w3.org/2000/svg" xmlns:xlink="http://www.w3.org/1999/xlink" xmlns:a="http://ns.adobe.com/AdobeSVGViewerExtensions/3.0/"
	 x="0px" y="0px" width="327px" height="327px" viewBox="-39.324 -0.708 327 327"
	 overflow="visible" enable-background="new -39.324 -0.708 327 327" xml:space="preserve">
<defs>
</defs>
<path fill="#5A646B" d="M253.701,210.727c0,15.965-10.419,28.904-23.285,28.904c-12.861,0-23.282-12.939-23.282-28.904
	s10.421-28.896,23.282-28.896C243.282,181.831,253.701,194.762,253.701,210.727z"/>
<path fill="#5A646B" d="M46.581,209.376c0,15.956-10.433,28.899-23.294,28.899C10.439,238.275,0,225.332,0,209.376
	c0-15.97,10.439-28.918,23.287-28.918C36.148,180.458,46.581,193.406,46.581,209.376z"/>
<path fill-rule="evenodd" clip-rule="evenodd" fill="#5A646B" d="M123.879,159.858c11.645-29.937,58.24-32.245,99.554-27.308
	c0,13.926,0,27.846,0,41.75c-29.542,10.47-32.757,63.729,0,72.269c0,19.795,0,39.598,0,59.41
	c-32.87-12.583-85.813-8.086-99.554,17.662c-9.736-27.836-65.016-29.182-94.756-17.662c-3.742-17.135-0.538-41.217-1.602-61.025
	c34.852-2.626,32.876-67.39,0-70.653c0-13.904,0-27.824,0-41.75C66.07,129.343,116.389,126.805,123.879,159.858z"/>
<path fill-rule="evenodd" clip-rule="evenodd" fill="#5A646B" d="M172.389,21.9c-3.561,0.651-7.477,2.779-8.124,6.959
	c-0.653,4.209,1.203,8.262,2.609,12.465c1.991,5.902,3.182,12.445,2.606,20.854c-0.939,14.263-6.955,22.902-10.425,33.643
	c-5.02-12.639-12.408-30.594-17.685-45.221c-1.895-5.282-2.461-9.12,3.189-10.146c0.854-0.174,1.785-0.201,2.611-0.288
	c0.607-0.056,1.957,0.507,2.035-0.589c0-0.287,0-0.58,0-0.854c-0.311-1.552-3.141-0.895-4.938-0.895c-10.828,0-21.96-0.184-33.631,0
	c-1.775,0.046-4.468-0.553-4.049,1.461c0.311,1.506,0.977,0.441,3.182,0.876c7.299,1.465,9.917,11.251,12.762,18.544
	c0.767,1.944,2.031,4.555,2.023,5.801c0,1.973-2.617,6.308-3.484,8.407c-3.561,8.723-6.6,16.317-10.123,24.925
	C105.088,83.83,97.48,66.496,91.803,50.297c-1.574-4.514-2.651-8.442,2.323-9.844c1.206-0.344,2.948,0.219,3.77-0.877
	c0.657-2.168-1.177-1.564-2.323-1.748c-7.95-1.068-18.63,0.817-26.669,0C77.366,18.709,95.18,1.937,121.072,0.156
	c13.461-0.921,25.014,2.342,33.93,7.253C162.018,11.265,168.257,16.245,172.389,21.9z"/>
<path fill-rule="evenodd" clip-rule="evenodd" fill="#5A646B" d="M184.282,42.758c0.27,0,0.22,0.365,0.278,0.584
	c6.143,15.814,1.895,37.812-5.5,50.154c-5.668,9.426-13.829,17.043-22.609,21.739C165.848,91.196,174.756,66.678,184.282,42.758z"/>
<path fill-rule="evenodd" clip-rule="evenodd" fill="#5A646B" d="M66.586,44.501c10.575,22.944,19.493,47.567,29.287,71.31
	c-21.66-10.652-37.562-39.339-29.574-70.43C66.391,44.98,66.166,44.542,66.586,44.501z"/>
<path fill-rule="evenodd" clip-rule="evenodd" fill="#5A646B" d="M127.171,71.174c6.491,16.193,12.912,32.491,18.833,49.278
	c-10.881,3.866-28.328,4.296-39.414,0.283C112.98,103.752,120.475,87.865,127.171,71.174z"/>
</svg>
